<svg version="1.1" id="Layer_1" xmlns="http://www.w3.org/2000/svg" xmlns:xlink="http://www.w3.org/1999/xlink" viewBox="0 0 512 512" xml:space="preserve">
<polygon style="fill:#AFB6BB;" points="477.691,192.66 477.691,382.68 451.299,382.68 60.701,382.68 34.309,382.68 34.309,192.66   60.701,192.66 451.299,192.66 "/>
<polygon style="fill:#FDB51E;" points="450.982,81.814 345.732,81.814 345.732,7.918 "/>
<g>
	<rect x="60.701" y="382.68" style="fill:#595E62;" width="390.598" height="121.402"/>
	<polygon style="fill:#595E62;" points="451.299,82.026 451.299,192.66 60.701,192.66 60.701,7.918 345.732,7.918 345.732,81.814    450.982,81.814  "/>
</g>
<g>
	<rect x="60.701" y="382.68" style="fill:#43474B;" width="195.299" height="121.402"/>
	<rect x="60.701" y="7.918" style="fill:#43474B;" width="195.299" height="184.742"/>
</g>
<polygon style="fill:#A0A7AB;" points="477.691,192.66 451.299,192.66 60.701,192.66 34.309,192.66 34.309,292.948 477.691,292.948   "/>
<path d="M485.608,184.742h-26.392V77.792L348.234,0H52.784v184.742H26.392v205.856h26.392V512h406.433V390.598h26.392V184.742z   M353.65,23.151l72.277,50.746H353.65V23.151z M68.619,15.835h269.196v73.897h105.567v95.01H68.619V15.835z M443.381,496.165H68.619  V390.598h374.763V496.165z M469.773,374.763H42.227V200.577h427.546V374.763z"/>
<path style="fill:#FFFFFF;" d="M200.577,95.01V58.062h-52.784V36.948H89.732V95.01h58.062V73.897h36.948V95.01h-21.113v58.062  h58.062V95.01H200.577z M131.959,79.175h-26.392V52.784h26.392V79.175z M205.856,137.237h-26.392v-26.392h26.392V137.237z"/>
<path d="M155.711,348.371h-21.113c-18.918,0-34.309-15.392-34.309-34.309h15.835c0,10.186,8.288,18.474,18.474,18.474h21.113  c10.186,0,18.474-8.288,18.474-18.474c0-10.186-8.288-18.474-18.474-18.474h-21.113c-18.918,0-34.309-15.392-34.309-34.309  s15.392-34.309,34.309-34.309h21.113c18.918,0,34.309,15.392,34.309,34.309h-15.835c0-10.186-8.288-18.474-18.474-18.474h-21.113  c-10.186,0-18.474,8.288-18.474,18.474s8.288,18.474,18.474,18.474h21.113c18.918,0,34.309,15.392,34.309,34.309  C190.021,332.979,174.629,348.371,155.711,348.371z"/>
<g>
	<rect x="113.485" y="432.825" style="fill:#FFFFFF;" width="285.031" height="15.835"/>
	<rect x="435.464" y="216.412" style="fill:#FFFFFF;" width="21.113" height="15.835"/>
	<rect x="435.464" y="343.093" style="fill:#FFFFFF;" width="21.113" height="15.835"/>
	<rect x="55.423" y="343.093" style="fill:#FFFFFF;" width="21.113" height="15.835"/>
	<rect x="55.423" y="216.412" style="fill:#FFFFFF;" width="21.113" height="15.835"/>
</g>
<path d="M366.845,353.65c-48.737,0-50.144-26.059-50.144-29.031v-58.062c0-0.96,0.196-9.621,7.014-18.142  c8.582-10.728,23.094-16.168,43.13-16.168c20.037,0,34.549,5.44,43.13,16.168c6.816,8.52,7.014,17.182,7.014,18.142h-15.835  l0.001,0.143c-0.073-1.905-1.66-18.617-34.31-18.617c-32.422,0-34.214,16.478-34.309,18.575v57.962  c0,3.424,6.303,13.196,34.309,13.196c14.464,0,24.582-4.873,30.074-14.485c4.119-7.21,4.235-14.474,4.235-14.546v-7.918h-34.309  v-15.835h50.144v23.753C416.99,309.232,416.416,353.65,366.845,353.65z"/>
<polygon points="266.735,348.371 245.265,348.371 201.096,232.427 215.894,226.79 256,332.068 296.106,226.79 310.904,232.427 "/>
</svg>